<svg width="23" height="19" viewBox="0 0 23 19" fill="none" xmlns="http://www.w3.org/2000/svg">
<path fill-rule="evenodd" clip-rule="evenodd" d="M0 1.58333C0 1.16341 0.166815 0.76068 0.463748 0.463748C0.76068 0.166815 1.16341 0 1.58333 0H20.5833C21.0033 0 21.406 0.166815 21.7029 0.463748C21.9999 0.76068 22.1667 1.16341 22.1667 1.58333C22.1667 2.00326 21.9999 2.40599 21.7029 2.70292C21.406 2.99985 21.0033 3.16667 20.5833 3.16667H1.58333C1.16341 3.16667 0.76068 2.99985 0.463748 2.70292C0.166815 2.40599 0 2.00326 0 1.58333Z" fill="#FBFBFB"/>
<path fill-rule="evenodd" clip-rule="evenodd" d="M0 9.49996C0 9.08003 0.166815 8.67731 0.463748 8.38037C0.76068 8.08344 1.16341 7.91663 1.58333 7.91663H20.5833C21.0033 7.91663 21.406 8.08344 21.7029 8.38037C21.9999 8.67731 22.1667 9.08003 22.1667 9.49996C22.1667 9.91989 21.9999 10.3226 21.7029 10.6195C21.406 10.9165 21.0033 11.0833 20.5833 11.0833H1.58333C1.16341 11.0833 0.76068 10.9165 0.463748 10.6195C0.166815 10.3226 0 9.91989 0 9.49996Z" fill="#FBFBFB"/>
<path fill-rule="evenodd" clip-rule="evenodd" d="M0 17.4167C0 16.9968 0.166815 16.5941 0.463748 16.2971C0.76068 16.0002 1.16341 15.8334 1.58333 15.8334H11.0833C11.5033 15.8334 11.906 16.0002 12.2029 16.2971C12.4999 16.5941 12.6667 16.9968 12.6667 17.4167C12.6667 17.8366 12.4999 18.2394 12.2029 18.5363C11.906 18.8332 11.5033 19 11.0833 19H1.58333C1.16341 19 0.76068 18.8332 0.463748 18.5363C0.166815 18.2394 0 17.8366 0 17.4167Z" fill="#FBFBFB"/>
</svg>
